<svg width="74" height="38" viewBox="0 0 74 38" fill="none" xmlns="http://www.w3.org/2000/svg">
    <path d="M5.57013 26.4078L4.94773 25.3705C4.94773 25.163 5.05147 24.9556 5.1552 24.9556C5.1552 24.9556 6.19252 24.5406 6.60745 23.8145C6.81491 23.3996 6.81491 22.8809 6.39998 22.6735C5.98506 22.3623 5.36266 22.5697 4.63654 23.0884C3.70295 23.8145 2.35443 24.4369 1.10965 23.7108C0.0723247 23.0884 -0.446336 21.6361 0.487253 19.9764C1.10965 18.8354 2.2507 18.4204 2.66563 18.213C2.76936 18.1092 2.97682 18.3167 3.08056 18.3167L3.59922 19.354C3.70295 19.4578 3.59922 19.769 3.49548 19.769C3.39175 19.8727 2.35443 20.2876 1.9395 20.91C1.73204 21.3249 1.83577 21.7399 2.04324 21.9473C2.45816 22.1548 2.87309 22.0511 3.80668 21.4287C4.63654 20.8063 6.08879 19.8727 7.43731 20.8063C8.47463 21.4287 8.99329 23.0884 8.0597 24.6444C7.33357 25.9929 6.29625 26.4078 5.88132 26.5115C5.77759 26.5115 5.67386 26.5115 5.57013 26.4078Z" fill="white"/>
    <path d="M12.8314 7.00993C13.8687 6.28381 14.8023 6.07634 15.9433 6.18007C16.0471 6.18007 16.1508 6.28381 16.1508 6.49127L15.9433 7.83979C15.9433 7.94352 15.8396 8.04725 15.7359 8.04725C15.1135 7.94352 14.4911 8.15098 14.0761 8.46218C12.9351 9.29204 12.8314 10.848 13.5575 11.8853C14.3873 13.0264 15.8396 13.3376 16.9806 12.5077C17.4993 12.1965 17.8105 11.6779 18.018 11.0555C18.018 10.9518 18.2254 10.848 18.3292 10.848L19.6777 11.1592C19.7814 11.1592 19.8851 11.3667 19.8851 11.4704C19.6777 12.6115 19.0553 13.5451 18.1217 14.1674C16.1508 15.6197 13.35 15.2048 11.8978 13.2339C10.4455 11.1592 10.8605 8.46218 12.8314 7.00993Z" fill="white"/>
    <path d="M25.7979 1.09717C25.7979 0.99344 25.7979 0.889708 26.0053 0.785976L29.6359 0.0598513C31.0882 -0.251345 32.5404 0.682244 32.7479 2.13449C32.9554 3.27555 32.4367 4.31287 31.5031 4.93526L33.7852 7.6323C33.889 7.73603 33.889 7.94349 33.6815 8.04722L32.0218 8.35842C31.918 8.35842 31.8143 8.35842 31.8143 8.25469L29.5322 5.35019L28.7024 5.55765L29.3247 8.66962C29.3247 8.77335 29.221 8.87708 29.1173 8.98082L27.665 9.29201C27.5613 9.29201 27.4576 9.18828 27.3538 9.08455L25.7979 1.09717ZM30.1546 3.69048C30.6733 3.58674 30.9845 3.06808 30.8807 2.54942C30.777 2.03076 30.2583 1.71957 29.7397 1.8233L27.9762 2.23823L28.3912 4.1054L30.1546 3.69048Z" fill="white"/>
    <path d="M47.5816 0.474777C49.9675 0.993438 51.4197 3.37928 50.901 5.76512C50.3824 8.15096 47.9965 9.60321 45.6107 8.98081C43.2249 8.46215 41.7726 6.07631 42.395 3.69047C43.0174 1.30463 45.1958 -0.147616 47.5816 0.474777ZM45.9219 7.11363C47.2704 7.42483 48.5152 6.59497 48.8264 5.35019C49.1376 4.00167 48.3077 2.65315 46.9592 2.34196C45.6107 2.03076 44.3659 2.86062 44.0547 4.20913C43.8473 5.45392 44.6771 6.80244 45.9219 7.11363Z" fill="white"/>
    <path d="M61.7929 7.11363C61.8966 7.00989 62.0004 7.00989 62.1041 7.11363L63.2452 8.04722C63.3489 8.15095 63.3489 8.25468 63.2452 8.35841L59.3033 13.545L61.5854 15.3085C61.6892 15.4122 61.6892 15.5159 61.5854 15.6197L60.7556 16.657C60.6518 16.7607 60.5481 16.7607 60.4444 16.657L56.8138 13.8562C56.71 13.7525 56.71 13.6488 56.8138 13.545L61.7929 7.11363Z" fill="white"/>
    <path d="M72.7885 18.1093C72.8923 18.0055 72.996 18.1093 73.0997 18.213L73.8258 19.4578C73.9296 19.5615 73.8258 19.6652 73.7221 19.769L68.1206 23.1921L69.6766 25.6817C69.7803 25.7854 69.6766 25.8892 69.5728 25.9929L68.4318 26.719C68.328 26.8228 68.2243 26.719 68.1206 26.6153L65.7347 22.6735C65.631 22.5697 65.7347 22.466 65.8385 22.3623L72.7885 18.1093Z" fill="white"/>
    <path d="M37.5196 37.7146L30.8807 31.0757L32.1255 29.831L37.5196 35.225L42.9137 29.831L44.1584 31.0757L37.5196 37.7146Z" fill="white"/>
</svg>
